<?xml version="1.0" encoding="utf-8"?>
<!-- Svg Vector Icons : http://www.onlinewebfonts.com/icon -->
<!DOCTYPE svg PUBLIC "-//W3C//DTD SVG 1.1//EN" "http://www.w3.org/Graphics/SVG/1.1/DTD/svg11.dtd">
<svg version="1.1" xmlns="http://www.w3.org/2000/svg" xmlns:xlink="http://www.w3.org/1999/xlink" x="0px" y="0px" viewBox="0 0 256 256" enable-background="new 0 0 256 256" xml:space="preserve">
<metadata> Svg Vector Icons : http://www.onlinewebfonts.com/icon </metadata>
<g><g><g><g><g><path fill="#000000" d="M140.2,79.7L10.4,209.5l-0.4,0.4l26.3,26.3l0.4,0.4l129.8-129.8l0.4-0.4l-26.3-26.3L140.2,79.7z"/></g><g><path fill="#000000" d="M184.5,89.1c2.8-2.4,5.3-4.5,5.4-7.5c0.1-1.9-0.8-3.7-2.7-5.6l-16.6-16.6c-1.8-1.8-3.6-2.7-5.4-2.7c-3.2,0-5.4,2.6-7.8,5.4l-0.3,0.3c-0.8,1-1.7,2-2.7,3c-1,1-2,1.9-3,2.8l-0.2,0.2c-2.8,2.4-5.3,4.5-5.4,7.5c-0.1,1.9,0.8,3.8,2.7,5.6L165.2,98c1.8,1.8,3.6,2.7,5.4,2.7c3.2,0,5.3-2.5,7.8-5.5c0.9-1.1,1.8-2.1,2.9-3.2C182.3,90.9,183.4,90,184.5,89.1z M170.5,95.9c-0.5,0-1.2-0.5-2-1.3L152,78.1c-1.1-1.2-1.3-1.8-1.3-2c0-1,2-2.6,3.7-4.1c1.1-0.9,2.3-2,3.5-3.2c1.2-1.2,2.3-2.5,3.2-3.6c1.5-1.7,3.2-3.7,4.1-3.7c0.5,0,1.2,0.5,2,1.3l16.6,16.6c1.2,1.2,1.3,1.8,1.3,2c0,0.9-2,2.6-3.7,4.1c-1.2,1-2.4,2-3.6,3.2c-1.2,1.2-2.3,2.5-3.2,3.6C173.2,94,171.5,95.9,170.5,95.9z"/></g><g><path fill="#000000" d="M201.2 97.4L193.3 108 180.2 108.5 190.7 116.5 191.3 129.5 199.2 119.1 212.3 118.5 201.8 110.6 z"/></g><g><path fill="#000000" d="M227.9,46.8l-1-22.7l-13.6,18.1l-22.7,1l18.2,13.7l1,22.5l13.6-18l22.7-1L227.9,46.8z"/></g><g><path fill="#000000" d="M162.7 53.3L171 42.3 184.9 41.7 173.8 33.3 173.2 19.4 164.8 30.5 150.9 31.1 162.1 39.5 z"/></g></g></g><g></g><g></g><g></g><g></g><g></g><g></g><g></g><g></g><g></g><g></g><g></g><g></g><g></g><g></g><g></g></g></g>
</svg>